# xmcd
#
# Track frame offsets: 
#        150
#        17870
#        34542
#        48452
#        61887
#        76567
#        92947
#        107425
#        128382
#        151100
#        167337
#        186765
#
# Disc length: 2716 seconds
#
# Revision: 2
# Processed by: cddbd v1.5.2PL0 Copyright (c) Steve Scherf et al.
# Submitted via: ExactAudioCopyFreeDBPlugin 1.0
#
DISCID=7c0a9a0c
DTITLE=Various Artists / Putumayo presents Acoustic Africa
DYEAR=2006
DGENRE=World
TTITLE0=Diogal / Sore (Senegal)
TTITLE1=Eneida Marta / Mindjer Dôce Mel (Guinea-Bissau)
TTITLE2=Rajery / Misahotaka Ny Akama (Madagascar)
TTITLE3=Angélique Kidjo / Sedjedo (Benin)
TTITLE4=Vusi Mahlasela / Basimanyana (South Africa)
TTITLE5=Faya Tess and Lokua Kanza / Bana (Congo)
TTITLE6=Laye Sow / Mauritania (Senegal)
TTITLE7=Gabriela Mendes / Tradição (Cape Verde)
TTITLE8=Habib Koité / Baro (Mali)
TTITLE9=Dobet Gnahoré / Palea (Ivory Coast)
TTITLE10=Manecas Costa / Antonia (Guinea-Bissau)
TTITLE11=Djélimady Tounkara / Fanta Bourama (Mali)
EXTD=
EXTT0=
EXTT1=
EXTT2=
EXTT3=
EXTT4=
EXTT5=
EXTT6=
EXTT7=
EXTT8=
EXTT9=
EXTT10=
EXTT11=
PLAYORDER=
.
